<svg xmlns="http://www.w3.org/2000/svg" width="1341.014" height="2062.474" viewBox="0 0 1341.014 2062.474">
  <g id="Group_1809" data-name="Group 1809" transform="matrix(0.999, 0.035, -0.035, 0.999, -5682.493, 2580.276)" opacity="0.1">
    <path id="Path_34329" data-name="Path 34329" d="M6844.791-1860.97l-416.437-645.087a65.182,65.182,0,0,0-46.037-29.2,64.892,64.892,0,0,0-52.081,15.863l-30.353,26.957-512.709,456.108a65.313,65.313,0,0,0-13.1,81.3l403.8,698.289.086.171a65.331,65.331,0,0,0,47.388,31.969,63.779,63.779,0,0,0,16.689.184,65.177,65.177,0,0,0,37.649-17.876l555.636-536.447a65.192,65.192,0,0,0,9.466-82.233Z" transform="translate(89.491 156.487)" fill="#d9a500"/>
    <path id="Path_34330" data-name="Path 34330" d="M5813.511-2043.135l513.131-456.5-55-63.36a65.073,65.073,0,0,0-49.622-22.392,65.344,65.344,0,0,0-49.338,23l-489.8,594.171a65.276,65.276,0,0,0-1.5,82.409l446.827,568.936-337.67-583.987a114.375,114.375,0,0,1,22.974-142.276Z" transform="translate(30.749 126.775)" fill="#d9a500"/>
    <path id="Path_34331" data-name="Path 34331" d="M5756.837-2310.817l358.5,319.183a40.21,40.21,0,0,0,23.15,10.873,41.645,41.645,0,0,0,10.2-.115,40.125,40.125,0,0,0,29.057-19.66l.108-.235,234.092-411.6a40.037,40.037,0,0,0-8.121-49.916l-349.1-277.214-18.682-16.462a40.124,40.124,0,0,0-32.034-9.709,40.176,40.176,0,0,0-28.142,18.031l-224.986,386.37a39.9,39.9,0,0,0,5.953,50.452Z" transform="translate(76.987 18.372)" fill="#bc5b40"/>
    <path id="Path_34332" data-name="Path 34332" d="M6299.991-2466.34a70.213,70.213,0,0,1,14.257,87.28L6120.6-2037.622l260.732-332.34a40.052,40.052,0,0,0-1.025-50.558l-335.252-362.049a40.213,40.213,0,0,0-30.354-14.087,40.232,40.232,0,0,0-30.414,13.865l-33.664,38.946,349.372,277.505Z" transform="translate(200.663 0)" fill="#bc5b40"/>
    <path id="Path_34333" data-name="Path 34333" d="M5741.149-2423.685l-109.062,51.5a10.832,10.832,0,0,0-5.49,7.163,10.675,10.675,0,0,0,1.837,8.815l4.008,5.386,66.395,100.252a10.778,10.778,0,0,0,13.219,3.351l116.068-53.35.025-.024a10.817,10.817,0,0,0,5.98-7.337,10.628,10.628,0,0,0,.274-2.733,11,11,0,0,0-2.4-6.49L5754.575-2420.9a10.778,10.778,0,0,0-13.425-2.784Z" transform="translate(6.055 223.069)" fill="#3d1b18"/>
    <path id="Path_34334" data-name="Path 34334" d="M5698.4-2275.3l-66.431-100.351-11.256,8.151a10.736,10.736,0,0,0-4.448,7.854,10.841,10.841,0,0,0,3.074,8.487l89.506,98.48a10.824,10.824,0,0,0,13.556,1.48l95.382-62.366-96.246,44.128a18.965,18.965,0,0,1-23.137-5.864Z" transform="translate(0 252.638)" fill="#3d1b18"/>
    <path id="Path_34335" data-name="Path 34335" d="M5989.27-1817.611a29.066,29.066,0,0,0-3.355,36.776l193.672,284.81a29.148,29.148,0,0,0,14.832,11.239,29.219,29.219,0,0,0,7.27,1.406,28.967,28.967,0,0,0,23.6-9.6l.084-.123,226.491-255.354a29.112,29.112,0,0,0,1.691-36.715l-191.544-255.635-10.8-14.5A28.957,28.957,0,0,0,6229.932-2067a29,29,0,0,0-22.728,8.557L5989.27-1817.611Z" transform="translate(218.824 437.806)" fill="#43a89e"/>
    <path id="Path_34336" data-name="Path 34336" d="M6359.132-1792.308a51.03,51.03,0,0,1-2.972,64.18l-187.205,211.513,233.508-195.016a29.03,29.03,0,0,0,6.831-36.04l-168.911-313.87a29.174,29.174,0,0,0-19.466-14.561,29.054,29.054,0,0,0-23.717,5.256l-29.79,22.676,191.722,255.863Z" transform="translate(330.758 431.996)" fill="#43a89e"/>
    <path id="Path_34337" data-name="Path 34337" d="M6391.243-1599.525l-180.783-246.958a27.948,27.948,0,0,0-20.489-10.292,27.276,27.276,0,0,0-21.059,9l-11.53,12.46L5939.541-1621.66a27.3,27.3,0,0,0-1.977,34.551L6126.3-1323.624l.1.106a27.316,27.316,0,0,0,21.148,11.344,25.644,25.644,0,0,0,6.954-.643,26.623,26.623,0,0,0,14.968-9.079l221.294-242.9a27.48,27.48,0,0,0,.474-34.731Z" transform="translate(189.692 564)" fill="#1d77bd"/>
    <path id="Path_34338" data-name="Path 34338" d="M5948.381-1626.446,6166.5-1840.287l-25.686-24.092a27.552,27.552,0,0,0-21.774-7.292,27.37,27.37,0,0,0-19.62,11.733l-202.38,270.351a27.533,27.533,0,0,0,2.9,34.538l201.244,207.59-156.207-218.587a48.049,48.049,0,0,1,3.409-60.4Z" transform="translate(165.649 554.971)" fill="#1d77bd"/>
    <path id="Path_34339" data-name="Path 34339" d="M5849.516-1884.651l-81.394.936a7.436,7.436,0,0,0-5.4,2.843,7.254,7.254,0,0,0-1.309,5.948l.914,4.422,12.55,80.177a7.261,7.261,0,0,0,7.171,5.77l86.2-.1.038-.007a7.265,7.265,0,0,0,5.726-2.821,6.78,6.78,0,0,0,.937-1.605,7.085,7.085,0,0,0,.349-4.643l-18.344-85.446a7.313,7.313,0,0,0-7.444-5.473Z" transform="translate(87.023 547.272)" fill="#9aacba"/>
    <path id="Path_34340" data-name="Path 34340" d="M5776.786-1794.88l-12.55-80.267-9.187,1.834a7.335,7.335,0,0,0-4.944,3.584,7.286,7.286,0,0,0-.493,6.061l27.211,85.6a7.322,7.322,0,0,0,7.922,4.712l76.04-11.45-71.457,0a12.779,12.779,0,0,1-12.542-10.077Z" transform="translate(79.781 552.981)" fill="#9aacba"/>
    <path id="Path_34341" data-name="Path 34341" d="M5913.979-1756.008a12.374,12.374,0,0,0-4.97,8.945,12.242,12.242,0,0,0,3.549,9.6l5.4,5.4,91.286,101.532a12.225,12.225,0,0,0,15.391,1.558l121.461-79.247.052-.043a12.236,12.236,0,0,0,5.482-9.229,13.526,13.526,0,0,0-.13-3.11,12.5,12.5,0,0,0-3.774-6.885l-104.3-103.628a12.2,12.2,0,0,0-15.524-.889l-113.917,76.007Z" transform="translate(175.673 577.442)" fill="#004e7f"/>
    <path id="Path_34342" data-name="Path 34342" d="M5916.116-1766.437l-11.29,11.047a12.209,12.209,0,0,0-3.684,9.57,12.338,12.338,0,0,0,4.867,9.005l116.963,95.691a12.27,12.27,0,0,0,15.467-.619l96.718-85.94-100.74,65.618a21.531,21.531,0,0,1-26.937-2.728l-91.364-101.644Z" transform="translate(170.957 618.216)" fill="#004e7f"/>
  </g>
</svg>
