<?xml version="1.0" encoding="UTF-8" standalone="no"?>
<!DOCTYPE svg PUBLIC "-//W3C//DTD SVG 1.1//EN" "http://www.w3.org/Graphics/SVG/1.1/DTD/svg11.dtd">
<svg xmlns="http://www.w3.org/2000/svg" version="1.1" viewBox="0 0 1714 946">
<path fill="#ffffff" d="
  M 1008.25 246.85
  Q 1009.03 245.68 1010.09 244.76
  Q 1051.82 208.37 1093.90 171.80
  C 1101.04 165.60 1106.77 168.50 1111.33 175.88
  Q 1113.51 179.42 1115.58 182.99
  A 1.00 0.99 58.9 0 1 1115.25 184.34
  Q 1073.71 210.52 1032.19 236.67
  Q 1023.42 242.20 1023.13 251.13
  Q 1023.01 254.89 1025.70 262.05
  Q 1042.16 305.84 1058.60 349.60
  A 0.29 0.29 0.0 0 1 1058.58 349.83
  Q 1058.45 350.05 1058.29 349.76
  Q 1033.37 304.39 1008.54 258.98
  C 1006.07 254.47 1005.41 251.06 1008.25 246.85
  Z"
/>
<path fill="#ffffff" d="
  M 1073.07 368.32
  Q 1072.90 368.16 1072.82 367.94
  Q 1052.16 313.09 1031.15 256.98
  C 1028.78 250.65 1029.68 246.32 1035.32 242.78
  Q 1077.75 216.06 1120.16 189.31
  Q 1126.30 185.43 1129.51 185.13
  Q 1136.00 184.51 1139.16 191.83
  Q 1160.75 241.83 1182.40 291.83
  C 1185.00 297.84 1185.28 302.65 1179.65 306.54
  Q 1134.42 337.72 1089.15 368.85
  C 1082.89 373.14 1078.87 373.76 1073.07 368.32
  Z"
/>
<path fill="#ffffff" d="
  M 829.94 321.31
  C 824.32 317.68 825.79 311.62 828.13 306.20
  C 842.50 272.88 856.26 239.08 871.24 206.06
  C 876.70 194.05 886.85 202.11 894.26 206.32
  A 1.00 1.00 0.0 0 1 894.62 207.72
  Q 870.47 246.65 846.02 285.79
  Q 839.69 295.92 838.99 299.98
  C 837.40 309.25 843.44 313.43 850.93 319.91
  C 856.14 324.42 912.62 373.06 912.49 373.30
  A 0.34 0.20 31.2 0 1 912.08 373.30
  Q 854.54 337.20 829.94 321.31
  Z"
/>
<path fill="#ffffff" d="
  M 852.81 312.77
  C 846.36 307.18 842.46 303.87 847.55 295.73
  Q 875.12 251.67 902.43 207.44
  Q 905.44 202.56 907.95 201.28
  C 912.76 198.82 916.49 201.38 920.49 204.75
  Q 957.96 236.40 995.46 268.02
  C 1001.88 273.44 1000.65 277.60 996.85 284.54
  Q 971.84 330.18 946.88 375.86
  C 942.85 383.23 936.97 385.31 929.82 379.17
  Q 891.24 346.06 852.81 312.77
  Z"
/>
<path fill="#ffffff" d="
  M 1309.61 281.63
  C 1315.02 280.46 1320.63 281.56 1322.42 287.59
  Q 1323.30 290.54 1323.28 300.91
  A 1.00 0.99 -1.8 0 1 1322.34 301.90
  Q 1274.71 305.03 1227.12 308.15
  C 1214.23 309.00 1208.66 312.62 1206.87 325.43
  Q 1200.98 367.67 1194.93 409.90
  Q 1194.84 410.54 1194.83 409.75
  Q 1194.07 362.00 1193.46 314.25
  C 1193.38 308.31 1198.07 305.94 1203.56 304.74
  Q 1256.57 293.11 1309.61 281.63
  Z"
/>
<path fill="#ffffff" d="
  M 1208.75 441.26
  C 1201.69 442.04 1198.48 435.04 1199.31 428.95
  Q 1206.51 376.60 1213.73 324.25
  C 1214.79 316.56 1219.00 315.33 1226.32 314.86
  Q 1276.85 311.56 1327.38 308.24
  C 1336.27 307.66 1340.25 311.98 1339.13 320.75
  Q 1332.79 370.25 1326.49 419.76
  C 1325.28 429.26 1319.30 428.89 1310.43 429.89
  Q 1259.60 435.62 1208.75 441.26
  Z"
/>
<path fill="#ffffff" d="
  M 748.44 383.81
  C 744.94 381.52 745.06 378.81 746.70 375.14
  Q 759.43 346.72 772.02 318.25
  C 773.77 314.29 777.15 313.04 780.81 315.34
  Q 806.59 331.59 832.35 347.88
  C 835.00 349.56 835.39 352.44 834.28 355.38
  Q 822.92 385.42 811.43 415.40
  C 809.85 419.53 806.36 421.31 802.44 418.82
  Q 783.54 406.79 748.44 383.81
  Z"
/>
<path fill="#ffffff" d="
  M 737.69 392.06
  C 735.10 390.81 734.74 387.87 735.48 385.14
  Q 744.08 353.42 752.84 321.72
  C 753.88 317.93 755.74 316.00 759.75 316.52
  Q 761.07 316.69 766.46 319.13
  A 1.01 1.00 -65.9 0 1 766.96 320.45
  Q 755.35 346.46 743.74 372.46
  C 740.70 379.29 740.87 383.49 747.19 387.60
  Q 769.09 401.86 791.06 416.03
  A 0.32 0.32 0.0 0 1 791.20 416.25
  Q 791.28 416.74 790.63 416.45
  Q 753.51 399.73 737.69 392.06
  Z"
/>
<path fill="#ffffff" d="
  M 669.19 423.56
  C 666.58 421.83 666.99 419.84 668.20 417.19
  Q 677.26 397.35 686.28 377.48
  C 687.99 373.71 690.87 374.75 693.72 376.58
  Q 710.53 387.35 727.34 398.15
  C 730.59 400.23 730.52 401.91 729.16 405.44
  Q 721.40 425.64 713.48 445.78
  C 712.48 448.32 710.10 450.46 707.49 448.78
  Q 695.70 441.18 669.19 423.56
  Z"
/>
<path fill="#ffffff" d="
  M 661.90 429.64
  Q 659.04 428.32 659.91 425.23
  L 673.03 378.55
  Q 673.94 375.32 676.38 376.17
  L 681.94 378.10
  A 1.01 1.00 -68.2 0 1 682.52 379.46
  Q 674.15 397.93 665.82 416.36
  C 664.03 420.30 664.34 423.65 667.98 426.03
  Q 683.30 436.06 698.61 446.11
  A 0.25 0.19 34.0 0 1 698.71 446.41
  L 698.64 446.50
  A 0.13 0.02 -55.3 0 1 698.55 446.59
  L 661.90 429.64
  Z"
/>
<path fill="#ffffff" d="
  M 632.56 411.60
  A 1.01 1.00 72.4 0 1 633.38 412.03
  L 652.87 440.40
  Q 654.48 442.74 652.43 444.68
  L 631.77 464.32
  Q 631.29 464.77 631.42 464.13
  Q 631.44 464.00 631.58 463.83
  Q 639.53 453.89 647.27 443.77
  C 649.95 440.26 649.30 438.57 646.38 435.47
  Q 636.88 425.40 627.42 415.31
  A 1.01 1.01 0.0 0 1 627.36 414.02
  Q 629.23 411.55 632.56 411.60
  Z"
/>
<path fill="#ffffff" d="
  M 622.15 467.83
  L 600.70 442.29
  Q 599.22 440.53 600.68 438.69
  L 620.05 414.30
  Q 621.90 411.96 624.03 414.22
  L 646.54 438.21
  Q 648.11 439.88 646.71 441.67
  Q 637.43 453.56 628.28 465.51
  Q 627.18 466.94 625.61 468.07
  Q 623.58 469.53 622.15 467.83
  Z"
/>
<path fill="#ffffff" d="
  M 551.71 435.95
  L 571.02 421.26
  Q 573.15 419.64 574.48 422.04
  L 586.59 443.92
  Q 587.93 446.33 585.72 448.06
  Q 577.09 454.79 568.26 461.64
  C 566.41 463.07 565.30 464.46 562.78 463.19
  A 1.02 0.98 89.4 0 1 562.33 462.73
  L 551.07 439.43
  Q 550.01 437.24 551.71 435.95
  Z"
/>
<path fill="#ffffff" d="
  M 581.31 421.43
  A 1.02 1.00 -3.6 0 1 582.04 422.06
  L 591.52 447.74
  Q 592.27 449.77 590.34 450.86
  C 588.56 451.86 570.83 462.03 570.59 461.70
  A 0.21 0.21 0.0 0 1 570.64 461.41
  L 587.45 448.44
  Q 589.66 446.73 588.28 444.23
  L 576.79 423.49
  A 1.00 1.00 0.0 0 1 577.11 422.17
  Q 578.99 420.94 581.31 421.43
  Z"
/>
<path fill="#ffffff" d="
  M 1336.34 471.46
  C 1327.69 469.47 1323.92 470.61 1320.71 478.71
  Q 1311.51 501.91 1302.37 525.14
  A 0.52 0.49 -89.3 0 1 1302.10 525.42
  Q 1301.56 525.67 1301.76 524.80
  Q 1307.99 498.34 1314.12 471.86
  C 1315.26 466.91 1316.92 465.40 1322.00 465.75
  Q 1355.34 468.04 1388.68 470.35
  C 1394.44 470.74 1393.40 478.38 1392.03 483.11
  A 1.01 1.00 14.2 0 1 1390.85 483.81
  Q 1363.56 477.71 1336.34 471.46
  Z"
/>
<path fill="#ffffff" d="
  M 1303.45 545.07
  C 1300.22 542.85 1300.60 540.02 1301.97 536.55
  Q 1313.42 507.51 1324.92 478.49
  C 1326.11 475.50 1328.54 473.63 1331.67 474.35
  Q 1362.50 481.41 1393.37 488.25
  C 1398.43 489.37 1400.32 491.97 1398.43 496.91
  Q 1387.71 525.01 1376.90 553.08
  C 1376.06 555.24 1373.65 557.36 1371.50 557.00
  Q 1338.63 551.45 1305.79 546.02
  Q 1304.52 545.80 1303.45 545.07
  Z"
/>
<path fill="#ffffff" d="
  M 214.06 562.97
  C 208.45 561.84 200.01 559.90 200.81 552.43
  C 201.91 542.28 215.57 542.97 222.21 546.31
  A 1.00 0.99 -66.3 0 1 222.69 547.56
  L 221.88 549.67
  A 1.00 0.99 -65.1 0 1 220.47 550.19
  Q 215.63 547.56 210.34 548.42
  C 203.74 549.48 203.87 555.57 210.30 557.29
  Q 214.55 558.42 218.73 559.78
  C 226.95 562.45 225.60 572.84 218.05 575.32
  C 212.99 576.98 206.60 576.29 201.81 573.81
  Q 199.13 572.42 201.18 569.49
  A 1.00 1.00 0.0 0 1 202.55 569.23
  Q 207.85 572.70 214.03 572.05
  C 221.27 571.28 221.57 564.49 214.06 562.97
  Z"
/>
<path fill="#ffffff" d="
  M 394.28 572.74
  C 382.25 580.08 364.52 574.89 366.37 558.50
  C 368.01 544.02 383.70 540.33 394.47 548.00
  A 1.01 1.00 -50.4 0 1 394.61 549.51
  L 392.87 551.32
  A 1.00 0.99 -48.5 0 1 391.52 551.41
  Q 387.70 548.31 383.13 548.32
  C 362.87 548.38 370.05 579.92 389.68 570.43
  A 1.02 0.99 -13.4 0 0 390.25 569.53
  L 390.25 560.75
  A 1.00 1.00 0.0 0 1 391.25 559.75
  L 393.75 559.75
  A 1.00 1.00 0.0 0 1 394.75 560.75
  L 394.76 571.89
  A 0.99 0.99 0.0 0 1 394.28 572.74
  Z"
/>
<path fill="#ffffff" d="
  M 187.07 568.00
  L 171.20 568.00
  A 0.32 0.32 0.0 0 0 170.91 568.19
  L 167.70 575.56
  A 0.32 0.32 0.0 0 1 167.41 575.75
  L 163.15 575.75
  A 0.32 0.32 0.0 0 1 162.85 575.30
  L 176.72 544.69
  A 0.32 0.32 0.0 0 1 177.02 544.50
  L 181.31 544.50
  A 0.32 0.32 0.0 0 1 181.61 544.69
  L 195.51 575.30
  A 0.32 0.32 0.0 0 1 195.22 575.75
  L 190.84 575.75
  A 0.32 0.32 0.0 0 1 190.55 575.56
  L 187.36 568.19
  A 0.32 0.32 0.0 0 0 187.07 568.00
  Z
  M 178.84 550.38
  Q 175.90 556.47 173.37 562.88
  A 1.00 1.00 0.0 0 0 174.30 564.25
  L 184.06 564.25
  A 1.00 1.00 0.0 0 0 184.98 562.85
  L 179.27 549.71
  Q 179.17 549.49 179.02 549.73
  C 179.00 549.77 178.89 550.28 178.84 550.38
  Z"
/>
<path fill="#ffffff" d="
  M 247.66 544.59
  C 261.55 545.47 261.36 566.01 246.02 566.44
  Q 242.05 566.55 237.99 566.58
  A 1.00 1.00 0.0 0 0 237.00 567.58
  L 237.00 574.75
  A 1.00 1.00 0.0 0 1 236.00 575.75
  L 233.50 575.75
  A 1.00 1.00 0.0 0 1 232.50 574.75
  L 232.50 545.61
  A 1.00 0.99 89.1 0 1 233.46 544.61
  Q 242.47 544.26 247.66 544.59
  Z
  M 249.95 549.70
  Q 244.07 547.82 237.87 548.61
  A 1.00 0.99 86.4 0 0 237.00 549.60
  L 237.00 561.17
  A 1.00 1.00 0.0 0 0 237.94 562.17
  Q 244.15 562.56 246.82 562.12
  Q 253.80 560.97 252.93 553.81
  Q 252.53 550.52 249.95 549.70
  Z"
/>
<rect fill="#ffffff" x="265.75" y="544.51" width="4.76" height="31.24" rx="0.43"/>
<path fill="#ffffff" d="
  M 300.63 566.46
  L 306.07 574.17
  Q 307.19 575.75 305.25 575.75
  L 302.41 575.75
  A 1.01 1.00 72.4 0 1 301.59 575.32
  L 295.55 566.68
  A 1.01 1.00 72.4 0 0 294.73 566.25
  L 286.75 566.25
  A 1.00 1.00 0.0 0 0 285.75 567.25
  L 285.75 574.75
  A 1.00 1.00 0.0 0 1 284.75 575.75
  L 282.25 575.75
  A 1.00 1.00 0.0 0 1 281.25 574.75
  L 281.25 545.60
  A 0.99 0.99 0.0 0 1 282.21 544.61
  Q 292.92 544.23 295.69 544.54
  C 304.09 545.47 309.42 552.85 305.38 560.57
  Q 303.91 563.37 300.96 565.01
  A 1.00 1.00 0.0 0 0 300.63 566.46
  Z
  M 295.67 562.15
  C 304.82 560.80 303.72 548.65 293.49 548.50
  Q 290.13 548.45 286.73 548.53
  A 1.00 1.00 0.0 0 0 285.75 549.53
  L 285.75 561.23
  A 1.00 1.00 0.0 0 0 286.72 562.23
  Q 293.68 562.44 295.67 562.15
  Z"
/>
<rect fill="#ffffff" x="315.25" y="544.51" width="4.76" height="31.24" rx="0.43"/>
<path fill="#ffffff" d="
  M 334.94 575.75
  L 330.81 575.75
  A 0.31 0.31 0.0 0 1 330.50 575.44
  L 330.50 544.81
  A 0.31 0.31 0.0 0 1 330.81 544.50
  L 334.43 544.50
  A 0.31 0.31 0.0 0 1 334.67 544.62
  L 352.45 566.75
  A 0.31 0.31 0.0 0 0 353.00 566.56
  L 353.00 544.81
  A 0.31 0.31 0.0 0 1 353.31 544.50
  L 357.44 544.50
  A 0.31 0.31 0.0 0 1 357.75 544.81
  L 357.75 575.44
  A 0.31 0.31 0.0 0 1 357.44 575.75
  L 353.82 575.75
  A 0.31 0.31 0.0 0 1 353.58 575.63
  L 335.80 553.49
  A 0.31 0.31 0.0 0 0 335.25 553.68
  L 335.25 575.44
  A 0.31 0.31 0.0 0 1 334.94 575.75
  Z"
/>
<path fill="#ffffff" d="
  M 1378.02 620.45
  Q 1377.87 604.10 1378.15 587.75
  Q 1378.19 585.33 1380.74 584.94
  L 1429.25 577.47
  Q 1432.62 576.95 1432.85 579.74
  L 1433.32 585.40
  A 1.01 1.01 0.0 0 1 1432.32 586.49
  Q 1412.47 586.51 1392.62 586.49
  C 1388.60 586.49 1384.85 587.46 1384.14 591.68
  Q 1381.61 606.75 1379.62 620.56
  Q 1378.12 630.92 1378.02 620.45
  Z"
/>
<path fill="#ffffff" d="
  M 1381.45 641.57
  C 1379.86 640.59 1379.36 639.19 1379.66 637.28
  Q 1383.17 614.53 1386.69 591.91
  Q 1387.13 589.03 1390.05 589.03
  Q 1413.03 588.98 1436.00 589.01
  Q 1440.36 589.01 1439.67 593.99
  Q 1436.71 615.51 1433.53 637.01
  Q 1433.18 639.38 1430.75 639.52
  L 1383.81 642.18
  A 4.22 3.94 57.5 0 1 1381.45 641.57
  Z"
/>
<path fill="#ffffff" d="
  M 984.97 658.27
  A 42.23 42.23 0.0 0 1 942.74 700.50
  A 42.23 42.23 0.0 0 1 900.51 658.27
  A 42.23 42.23 0.0 0 1 942.74 616.04
  A 42.23 42.23 0.0 0 1 984.97 658.27
  Z
  M 942.9568 690.1196
  A 31.85 31.23 89.7 0 0 974.0196 658.1065
  A 31.85 31.23 89.7 0 0 942.6232 626.4204
  A 31.85 31.23 89.7 0 0 911.5604 658.4335
  A 31.85 31.23 89.7 0 0 942.9568 690.1196
  Z"
/>
<path fill="#ffffff" d="
  M 221.50 666.75
  L 207.50 666.75
  A 1.00 1.00 0.0 0 1 206.50 665.75
  L 206.50 650.50
  A 1.00 1.00 0.0 0 1 207.50 649.50
  L 239.50 649.50
  A 1.00 1.00 0.0 0 1 240.50 650.50
  L 240.50 688.01
  A 1.04 1.01 -23.5 0 1 240.21 688.72
  C 222.98 705.88 189.46 703.68 173.56 686.38
  C 161.25 672.99 159.36 653.19 168.16 637.32
  C 177.73 620.08 196.90 613.40 216.49 617.29
  Q 229.52 619.88 238.47 629.46
  A 1.00 1.00 0.0 0 1 238.44 630.86
  L 226.94 642.12
  A 1.01 1.01 0.0 0 1 225.55 642.13
  C 216.01 633.02 201.89 631.06 191.05 638.79
  C 182.22 645.08 179.02 657.37 182.97 667.53
  C 188.20 680.97 202.71 684.46 215.56 681.57
  Q 219.30 680.73 222.04 678.98
  A 1.00 0.98 74.1 0 0 222.50 678.14
  L 222.50 667.75
  A 1.00 1.00 0.0 0 0 221.50 666.75
  Z"
/>
<path fill="#ffffff" d="
  M 395.95 658.27
  A 42.12 42.12 0.0 0 1 353.83 700.39
  A 42.12 42.12 0.0 0 1 311.71 658.27
  A 42.12 42.12 0.0 0 1 353.83 616.15
  A 42.12 42.12 0.0 0 1 395.95 658.27
  Z
  M 353.7278 682.4400
  A 24.17 23.42 90.1 0 0 377.1900 658.3109
  A 24.17 23.42 90.1 0 0 353.8122 634.1000
  A 24.17 23.42 90.1 0 0 330.3500 658.2291
  A 24.17 23.42 90.1 0 0 353.7278 682.4400
  Z"
/>
<path fill="#ffffff" d="
  M 633.94 689.31
  C 608.50 666.10 620.23 624.69 653.49 617.02
  C 675.80 611.88 698.29 626.84 703.44 648.80
  Q 707.09 664.36 699.07 679.05
  A 0.99 0.99 0.0 0 0 699.32 680.30
  L 706.94 686.47
  A 1.00 0.99 -50.9 0 1 707.08 687.88
  L 697.79 699.31
  A 1.00 0.99 39.1 0 1 696.38 699.45
  L 688.07 692.68
  A 1.01 1.00 47.8 0 0 686.89 692.62
  C 669.39 703.98 648.84 702.91 633.94 689.31
  Z
  M 661.71 669.87
  L 670.98 658.52
  A 1.01 1.00 -50.5 0 1 672.39 658.38
  L 682.84 666.93
  A 1.00 1.00 0.0 0 0 684.43 666.45
  Q 686.79 658.64 684.80 651.63
  C 679.33 632.29 654.44 627.60 643.05 644.53
  C 629.98 663.93 648.76 689.00 671.05 680.74
  Q 672.68 680.14 671.33 679.03
  L 661.86 671.28
  A 1.01 1.00 39.3 0 1 661.71 669.87
  Z"
/>
<path fill="#ffffff" d="
  M 1065.42 654.33
  C 1055.69 646.37 1055.84 630.90 1064.50 622.89
  C 1076.25 612.03 1096.93 614.77 1106.99 626.60
  A 1.01 1.00 48.9 0 1 1106.90 628.00
  L 1100.39 633.81
  A 1.00 0.99 -41.2 0 1 1098.97 633.72
  Q 1090.76 624.24 1078.52 626.99
  C 1066.58 629.66 1065.75 643.85 1076.96 648.52
  C 1091.48 654.55 1110.09 658.29 1109.97 677.76
  C 1109.87 694.10 1095.36 701.62 1080.83 700.36
  C 1070.43 699.45 1061.46 695.32 1055.63 686.50
  A 1.00 1.00 0.0 0 1 1055.85 685.15
  L 1063.12 679.60
  A 1.00 0.99 53.6 0 1 1064.54 679.82
  Q 1072.77 691.42 1087.25 690.02
  C 1097.76 689.00 1102.64 678.16 1095.78 669.70
  Q 1093.92 667.41 1088.93 665.42
  C 1078.51 661.24 1071.47 659.29 1065.42 654.33
  Z"
/>
<path fill="#ffffff" d="
  M 272.80 681.50
  L 304.94 681.50
  A 0.55 0.55 0.0 0 1 305.49 682.05
  L 305.50 698.45
  A 0.55 0.55 0.0 0 1 304.95 699.00
  L 254.30 699.00
  A 0.55 0.55 0.0 0 1 253.75 698.45
  L 253.75 618.05
  A 0.55 0.55 0.0 0 1 254.30 617.50
  L 304.95 617.50
  A 0.55 0.55 0.0 0 1 305.50 618.05
  L 305.50 634.70
  A 0.55 0.55 0.0 0 1 304.95 635.25
  L 272.80 635.25
  A 0.55 0.55 0.0 0 0 272.25 635.80
  L 272.25 648.95
  A 0.55 0.55 0.0 0 0 272.80 649.50
  L 297.95 649.50
  A 0.55 0.55 0.0 0 1 298.50 650.05
  L 298.50 666.45
  A 0.55 0.55 0.0 0 1 297.95 667.00
  L 272.80 667.00
  A 0.55 0.55 0.0 0 0 272.25 667.55
  L 272.25 680.95
  A 0.55 0.55 0.0 0 0 272.80 681.50
  Z"
/>
<path fill="#ffffff" d="
  M 425.00 674.30
  L 425.00 698.00
  A 1.00 1.00 0.0 0 1 424.00 699.00
  L 407.50 699.00
  A 1.00 1.00 0.0 0 1 406.50 698.00
  L 406.50 618.51
  A 1.01 1.00 -0.3 0 1 407.50 617.51
  Q 416.74 617.49 426.05 617.50
  Q 439.50 617.52 444.27 619.04
  C 454.28 622.22 461.78 631.64 462.94 642.22
  C 464.98 660.78 450.96 673.14 433.14 673.23
  Q 429.57 673.25 425.99 673.30
  A 1.00 1.00 0.0 0 0 425.00 674.30
  Z
  M 435.43 655.90
  C 448.71 653.95 447.90 635.60 435.24 635.02
  Q 432.85 634.91 425.98 635.03
  A 1.00 1.00 0.0 0 0 425.00 636.03
  L 425.00 654.98
  A 1.00 1.00 0.0 0 0 425.97 655.98
  Q 433.44 656.19 435.43 655.90
  Z"
/>
<path fill="#ffffff" d="
  M 515.64 681.75
  L 482.82 681.75
  A 0.40 0.40 0.0 0 0 482.45 682.00
  L 475.46 698.75
  A 0.40 0.40 0.0 0 1 475.09 699.00
  L 456.57 699.00
  A 0.40 0.40 0.0 0 1 456.20 698.44
  L 490.79 617.74
  A 0.40 0.40 0.0 0 1 491.15 617.50
  L 507.34 617.50
  A 0.40 0.40 0.0 0 1 507.70 617.74
  L 542.28 698.43
  A 0.40 0.40 0.0 0 1 541.91 698.99
  L 523.38 699.00
  A 0.40 0.40 0.0 0 1 523.01 698.75
  L 516.01 682.00
  A 0.40 0.40 0.0 0 0 515.64 681.75
  Z
  M 489.49 665.32
  A 0.31 0.31 0.0 0 0 489.78 665.75
  L 508.70 665.75
  A 0.31 0.31 0.0 0 0 508.99 665.32
  L 499.53 642.59
  A 0.31 0.31 0.0 0 0 498.95 642.59
  L 489.49 665.32
  Z"
/>
<path fill="#ffffff" d="
  M 593.01 664.36
  L 619.79 697.69
  Q 620.83 698.99 619.16 698.99
  L 598.99 699.00
  A 1.01 1.00 -19.3 0 1 598.21 698.63
  Q 585.28 682.62 572.44 666.56
  Q 571.23 665.06 569.49 665.53
  A 1.01 1.00 82.5 0 0 568.75 666.50
  L 568.75 698.00
  A 1.00 1.00 0.0 0 1 567.75 699.00
  L 551.25 699.00
  A 1.00 1.00 0.0 0 1 550.25 698.00
  L 550.25 618.54
  A 1.00 1.00 0.0 0 1 551.24 617.54
  Q 579.52 617.32 584.92 617.57
  C 602.98 618.43 614.92 640.04 603.69 655.03
  Q 599.83 660.19 593.41 662.80
  A 1.01 1.00 59.5 0 0 593.01 664.36
  Z
  M 588.29 637.76
  Q 584.38 634.52 580.74 634.50
  Q 575.27 634.46 569.74 634.53
  A 1.00 1.00 0.0 0 0 568.75 635.53
  L 568.75 648.72
  A 1.00 1.00 0.0 0 0 569.73 649.72
  Q 573.82 649.80 577.89 649.75
  C 585.41 649.65 591.66 647.32 588.59 638.21
  A 1.04 0.98 -80.3 0 0 588.29 637.76
  Z"
/>
<path fill="#ffffff" d="
  M 784.46 671.98
  C 780.15 706.87 729.48 710.92 719.33 678.05
  Q 717.86 673.30 717.79 661.39
  Q 717.67 639.96 717.79 618.49
  A 1.00 0.99 -0.0 0 1 718.79 617.50
  L 735.20 617.50
  A 1.01 1.00 89.7 0 1 736.20 618.50
  Q 736.28 640.59 736.26 662.61
  Q 736.25 670.77 737.34 673.70
  C 740.79 682.96 753.82 685.08 761.05 679.28
  C 765.09 676.04 766.49 671.03 766.49 666.00
  Q 766.48 642.25 766.52 618.50
  A 1.00 1.00 0.0 0 1 767.52 617.50
  L 783.94 617.50
  A 1.00 1.00 0.0 0 1 784.94 618.49
  Q 785.06 641.29 784.97 663.99
  Q 784.95 668.01 784.46 671.98
  Z"
/>
<path fill="#ffffff" d="
  M 818.25 667.45
  L 818.25 681.05
  A 0.45 0.45 0.0 0 0 818.70 681.50
  L 851.05 681.50
  A 0.45 0.45 0.0 0 1 851.50 681.95
  L 851.50 698.55
  A 0.45 0.45 0.0 0 1 851.05 699.00
  L 800.20 699.00
  A 0.45 0.45 0.0 0 1 799.75 698.55
  L 799.75 617.95
  A 0.45 0.45 0.0 0 1 800.20 617.50
  L 851.05 617.50
  A 0.45 0.45 0.0 0 1 851.50 617.95
  L 851.50 634.80
  A 0.45 0.45 0.0 0 1 851.05 635.25
  L 818.70 635.25
  A 0.45 0.45 0.0 0 0 818.25 635.70
  L 818.25 649.05
  A 0.45 0.45 0.0 0 0 818.70 649.50
  L 844.30 649.50
  A 0.45 0.45 0.0 0 1 844.75 649.95
  L 844.75 666.55
  A 0.45 0.45 0.0 0 1 844.30 667.00
  L 818.70 667.00
  A 0.45 0.45 0.0 0 0 818.25 667.45
  Z"
/>
<path fill="#ffffff" d="
  M 1009.51 688.75
  L 1045.23 688.75
  A 0.51 0.51 0.0 0 1 1045.74 689.26
  L 1045.76 698.49
  A 0.51 0.51 0.0 0 1 1045.25 699.00
  L 998.76 699.00
  A 0.51 0.51 0.0 0 1 998.25 698.49
  L 998.25 618.01
  A 0.51 0.51 0.0 0 1 998.76 617.50
  L 1045.24 617.50
  A 0.51 0.51 0.0 0 1 1045.75 618.01
  L 1045.75 627.24
  A 0.51 0.51 0.0 0 1 1045.24 627.75
  L 1009.51 627.75
  A 0.51 0.51 0.0 0 0 1009.00 628.26
  L 1009.00 651.74
  A 0.51 0.51 0.0 0 0 1009.51 652.25
  L 1038.49 652.25
  A 0.51 0.51 0.0 0 1 1039.00 652.76
  L 1039.00 661.99
  A 0.51 0.51 0.0 0 1 1038.49 662.50
  L 1009.51 662.50
  A 0.51 0.51 0.0 0 0 1009.00 663.01
  L 1009.00 688.24
  A 0.51 0.51 0.0 0 0 1009.51 688.75
  Z"
/>
<path fill="#ffffff" d="
  M 1140.52 627.75
  L 1116.23 627.75
  A 0.48 0.48 0.0 0 1 1115.75 627.27
  L 1115.75 617.98
  A 0.48 0.48 0.0 0 1 1116.23 617.50
  L 1176.52 617.50
  A 0.48 0.48 0.0 0 1 1177.00 617.98
  L 1177.00 627.27
  A 0.48 0.48 0.0 0 1 1176.52 627.75
  L 1152.23 627.75
  A 0.48 0.48 0.0 0 0 1151.75 628.23
  L 1151.75 698.52
  A 0.48 0.48 0.0 0 1 1151.27 699.00
  L 1141.48 699.00
  A 0.48 0.48 0.0 0 1 1141.00 698.52
  L 1141.00 628.23
  A 0.48 0.48 0.0 0 0 1140.52 627.75
  Z"
/>
<path fill="#ffffff" d="
  M 1200.63 688.75
  L 1236.62 688.75
  A 0.38 0.38 0.0 0 1 1237.00 689.13
  L 1237.00 698.62
  A 0.38 0.38 0.0 0 1 1236.62 699.00
  L 1189.88 699.00
  A 0.38 0.38 0.0 0 1 1189.50 698.62
  L 1189.50 617.88
  A 0.38 0.38 0.0 0 1 1189.88 617.50
  L 1236.62 617.50
  A 0.38 0.38 0.0 0 1 1237.00 617.88
  L 1237.00 627.37
  A 0.38 0.38 0.0 0 1 1236.62 627.75
  L 1200.63 627.75
  A 0.38 0.38 0.0 0 0 1200.25 628.13
  L 1200.25 651.87
  A 0.38 0.38 0.0 0 0 1200.63 652.25
  L 1229.87 652.25
  A 0.38 0.38 0.0 0 1 1230.25 652.63
  L 1230.25 662.12
  A 0.38 0.38 0.0 0 1 1229.87 662.50
  L 1200.63 662.50
  A 0.38 0.38 0.0 0 0 1200.25 662.88
  L 1200.25 688.37
  A 0.38 0.38 0.0 0 0 1200.63 688.75
  Z"
/>
<path fill="#ffffff" d="
  M 1465.34 640.67
  L 1467.48 643.51
  A 1.00 1.00 0.0 0 1 1467.22 644.96
  Q 1454.77 652.78 1442.41 660.64
  C 1439.55 662.46 1439.68 664.83 1440.98 667.80
  Q 1445.99 679.19 1450.93 690.61
  C 1451.02 690.82 1451.01 691.05 1450.71 690.99
  A 0.27 0.24 -4.1 0 1 1450.55 690.87
  L 1435.57 666.93
  Q 1434.21 664.76 1435.97 663.22
  L 1461.46 640.95
  Q 1463.92 638.80 1465.34 640.67
  Z"
/>
<path fill="#ffffff" d="
  M 1455.60 695.90
  Q 1454.90 695.11 1454.47 694.14
  Q 1448.66 681.03 1443.00 667.95
  C 1441.89 665.37 1440.77 663.84 1443.78 661.92
  Q 1456.88 653.56 1469.97 645.24
  C 1472.72 643.50 1474.19 644.96 1475.34 647.50
  Q 1481.70 661.51 1487.94 675.59
  A 1.00 0.99 60.1 0 1 1487.62 676.80
  Q 1473.58 686.93 1459.40 696.88
  Q 1457.59 698.14 1455.60 695.90
  Z"
/>
<path fill="#ffffff" d="
  M 1512.42 675.85
  Q 1509.71 674.33 1510.84 671.32
  L 1519.51 648.25
  Q 1520.43 645.79 1522.70 647.04
  L 1545.17 659.37
  A 1.00 0.99 -67.1 0 1 1545.64 660.54
  L 1537.30 687.23
  Q 1536.61 689.45 1534.03 688.00
  L 1512.42 675.85
  Z"
/>
<path fill="#ffffff" d="
  M 1506.75 678.69
  A 1.00 0.99 -73.7 0 1 1506.13 677.55
  Q 1508.73 665.22 1511.35 652.42
  C 1512.01 649.21 1513.38 646.59 1516.98 649.03
  A 1.00 0.99 -62.6 0 1 1517.35 650.21
  Q 1513.44 660.65 1509.55 671.02
  C 1507.90 675.42 1510.26 676.13 1513.81 678.15
  Q 1521.41 682.49 1529.04 686.75
  C 1529.20 686.84 1529.38 687.03 1529.17 687.17
  A 0.47 0.16 24.7 0 1 1528.80 687.13
  L 1506.75 678.69
  Z"
/>
</svg>
