<svg xmlns="http://www.w3.org/2000/svg" xmlns:xlink="http://www.w3.org/1999/xlink" width="147.709" height="65.561" viewBox="0 0 147.709 65.561">
  <defs>
    <clipPath id="clip-path">
      <rect id="Rectangle_24718" data-name="Rectangle 24718" width="147.709" height="65.561" fill="none"/>
    </clipPath>
  </defs>
  <g id="Group_41384" data-name="Group 41384" transform="translate(0 0.001)">
    <path id="Path_34564" data-name="Path 34564" d="M1464.186,2147.285v3.579h-.715v-3.579h-1.284v-.654h3.282v.654Z" transform="translate(-1420.446 -2085.352)" fill="#fff"/>
    <path id="Path_34565" data-name="Path 34565" d="M1607.288,2146.631v.672h-2.259v1.12h2.029v.636h-2.029v1.133h2.332v.672h-3.046v-4.233Z" transform="translate(-1558.516 -2085.352)" fill="#fff"/>
    <g id="Group_41383" data-name="Group 41383" transform="translate(0 -0.001)">
      <g id="Group_41382" data-name="Group 41382" clip-path="url(#clip-path)">
        <path id="Path_34566" data-name="Path 34566" d="M1746.428,2148.006a1.229,1.229,0,0,1-.915,1.32l1.108,1.538h-.908l-1.011-1.423h-.939v1.423h-.714v-4.233h1.574a2.279,2.279,0,0,1,1.387.327,1.248,1.248,0,0,1,.418,1.048m-.951.6a.754.754,0,0,0,.218-.6.645.645,0,0,0-.224-.569,1.49,1.49,0,0,0-.8-.154h-.908v1.514h.89a1.308,1.308,0,0,0,.824-.188" transform="translate(-1693.291 -2085.352)" fill="#fff"/>
        <path id="Path_34567" data-name="Path 34567" d="M1900.861,2148.006a1.229,1.229,0,0,1-.914,1.32l1.108,1.538h-.908l-1.011-1.423h-.939v1.423h-.715v-4.233h1.574a2.279,2.279,0,0,1,1.387.327,1.248,1.248,0,0,1,.418,1.048m-.951.6a.753.753,0,0,0,.218-.6.645.645,0,0,0-.224-.569,1.49,1.49,0,0,0-.8-.154h-.908v1.514h.89a1.307,1.307,0,0,0,.824-.188" transform="translate(-1843.315 -2085.352)" fill="#fff"/>
        <path id="Path_34568" data-name="Path 34568" d="M2032.525,2149.9l-.424.963h-.763l1.865-4.233h.763l1.865,4.233h-.763l-.424-.963Zm1.829-.66-.769-1.744-.769,1.744Z" transform="translate(-1973.35 -2085.351)" fill="#fff"/>
        <path id="Path_34569" data-name="Path 34569" d="M2198.85,2143.685a.939.939,0,0,0-.512.127.425.425,0,0,0-.2.385.447.447,0,0,0,.2.393,3.023,3.023,0,0,0,.851.294,2.337,2.337,0,0,1,.981.442,1.047,1.047,0,0,1,.33.838,1.111,1.111,0,0,1-.418.9,1.665,1.665,0,0,1-1.1.345,2.575,2.575,0,0,1-1.762-.684l.448-.539a2.017,2.017,0,0,0,1.332.557.91.91,0,0,0,.548-.148.465.465,0,0,0,.2-.394.442.442,0,0,0-.191-.381,2.012,2.012,0,0,0-.657-.248,5.866,5.866,0,0,1-.709-.206,1.591,1.591,0,0,1-.43-.245,1.024,1.024,0,0,1-.375-.872,1.062,1.062,0,0,1,.427-.905,1.72,1.72,0,0,1,1.057-.318,2.531,2.531,0,0,1,.805.134,2.11,2.11,0,0,1,.69.375l-.381.539a1.443,1.443,0,0,0-.509-.279,1.959,1.959,0,0,0-.633-.109" transform="translate(-2134.501 -2081.849)" fill="#fff"/>
        <path id="Path_34570" data-name="Path 34570" d="M2404.284,2147.185a1.974,1.974,0,0,1,.612,1.541,2.075,2.075,0,0,1-.593,1.563,2.522,2.522,0,0,1-1.817.575h-1.4v-4.233h1.453a2.519,2.519,0,0,1,1.75.554m-.109,1.56q0-1.453-1.666-1.454h-.714v2.9h.793a1.708,1.708,0,0,0,1.178-.366,1.376,1.376,0,0,0,.409-1.081" transform="translate(-2332.538 -2085.352)" fill="#fff"/>
        <path id="Path_34571" data-name="Path 34571" d="M2561.239,2146.777a2.322,2.322,0,0,1-3.173,0,2.222,2.222,0,0,1,0-3.125,2.321,2.321,0,0,1,3.173,0,2.223,2.223,0,0,1,0,3.125m-.524-2.649a1.484,1.484,0,0,0-2.126,0,1.581,1.581,0,0,0,0,2.174,1.484,1.484,0,0,0,2.126,0,1.581,1.581,0,0,0,0-2.174" transform="translate(-2484.417 -2081.85)" fill="#fff"/>
        <path id="Path_34572" data-name="Path 34572" d="M2789.821,2147.273v-.642h2.059v2.792a1.489,1.489,0,0,1-.375,1.108,1.315,1.315,0,0,1-.963.369,1.716,1.716,0,0,1-1.26-.521l.406-.563a1.192,1.192,0,0,0,.805.394.664.664,0,0,0,.475-.188.743.743,0,0,0,.2-.563v-2.187Z" transform="translate(-2709.657 -2085.352)" fill="#fff"/>
        <path id="Path_34573" data-name="Path 34573" d="M2919.264,2149.894a1.084,1.084,0,0,0,1.575,0,1.369,1.369,0,0,0,.291-.92v-2.344h.715V2149a1.885,1.885,0,0,1-.5,1.408,1.933,1.933,0,0,1-2.58,0,1.884,1.884,0,0,1-.5-1.408v-2.374h.715v2.344a1.368,1.368,0,0,0,.291.92" transform="translate(-2834.952 -2085.351)" fill="#fff"/>
        <path id="Path_34574" data-name="Path 34574" d="M3086.465,2148.006a1.229,1.229,0,0,1-.915,1.32l1.108,1.538h-.909l-1.011-1.423h-.939v1.423h-.715v-4.233h1.575a2.278,2.278,0,0,1,1.386.327,1.248,1.248,0,0,1,.418,1.048m-.951.6a.754.754,0,0,0,.218-.6.645.645,0,0,0-.224-.569,1.49,1.49,0,0,0-.8-.154h-.908v1.514h.89a1.307,1.307,0,0,0,.823-.188" transform="translate(-2995.074 -2085.352)" fill="#fff"/>
        <path id="Path_34575" data-name="Path 34575" d="M3218.128,2107.861l-.424.963h-.763l1.865-4.233h.763l1.865,4.233h-.763l-.424-.963Zm1.829-.66-.769-1.744-.769,1.744Zm-.442-2.967h-.618l.642-.878.715.3Z" transform="translate(-3125.108 -2043.311)" fill="#fff"/>
        <path id="Path_34576" data-name="Path 34576" d="M3384.454,2143.685a.939.939,0,0,0-.512.127.425.425,0,0,0-.2.385.447.447,0,0,0,.2.393,3.02,3.02,0,0,0,.851.294,2.337,2.337,0,0,1,.981.442,1.046,1.046,0,0,1,.33.838,1.111,1.111,0,0,1-.418.9,1.665,1.665,0,0,1-1.1.345,2.575,2.575,0,0,1-1.762-.684l.448-.539a2.017,2.017,0,0,0,1.332.557.91.91,0,0,0,.548-.148.465.465,0,0,0,.2-.394.441.441,0,0,0-.191-.381,2,2,0,0,0-.657-.248,5.86,5.86,0,0,1-.708-.206,1.587,1.587,0,0,1-.43-.245,1.024,1.024,0,0,1-.375-.872,1.062,1.062,0,0,1,.427-.905,1.719,1.719,0,0,1,1.057-.318,2.532,2.532,0,0,1,.805.134,2.108,2.108,0,0,1,.69.375l-.382.539a1.439,1.439,0,0,0-.509-.279,1.959,1.959,0,0,0-.633-.109" transform="translate(-3286.259 -2081.849)" fill="#fff"/>
        <path id="Path_34577" data-name="Path 34577" d="M3518.1,2143.685a.938.938,0,0,0-.512.127.425.425,0,0,0-.2.385.446.446,0,0,0,.2.393,3.014,3.014,0,0,0,.851.294,2.338,2.338,0,0,1,.981.442,1.046,1.046,0,0,1,.33.838,1.111,1.111,0,0,1-.418.9,1.664,1.664,0,0,1-1.1.345,2.573,2.573,0,0,1-1.762-.684l.448-.539a2.017,2.017,0,0,0,1.333.557.91.91,0,0,0,.548-.148.465.465,0,0,0,.2-.394.442.442,0,0,0-.191-.381,2.01,2.01,0,0,0-.657-.248,5.88,5.88,0,0,1-.709-.206,1.586,1.586,0,0,1-.43-.245,1.023,1.023,0,0,1-.376-.872,1.062,1.062,0,0,1,.427-.905,1.72,1.72,0,0,1,1.057-.318,2.534,2.534,0,0,1,.806.134,2.106,2.106,0,0,1,.69.375l-.382.539a1.441,1.441,0,0,0-.509-.279,1.958,1.958,0,0,0-.633-.109" transform="translate(-3416.087 -2081.849)" fill="#fff"/>
        <rect id="Rectangle_24717" data-name="Rectangle 24717" width="0.715" height="4.233" transform="translate(104.544 61.279)" fill="#fff"/>
        <path id="Path_34578" data-name="Path 34578" d="M3721.047,2146.714a1.5,1.5,0,0,0,.636-.124,2.184,2.184,0,0,0,.557-.4l.46.473a2.118,2.118,0,0,1-1.632.745,2.188,2.188,0,0,1-1.593-.618,2.245,2.245,0,0,1,.012-3.137,2.236,2.236,0,0,1,1.629-.63,2.129,2.129,0,0,1,1.644.727l-.454.5a1.994,1.994,0,0,0-.572-.406,1.6,1.6,0,0,0-.633-.115,1.5,1.5,0,0,0-1.078.415,1.4,1.4,0,0,0-.436,1.06,1.464,1.464,0,0,0,.433,1.078,1.4,1.4,0,0,0,1.027.433" transform="translate(-3612.682 -2081.85)" fill="#fff"/>
        <path id="Path_34579" data-name="Path 34579" d="M3875.605,2146.777a2.322,2.322,0,0,1-3.174,0,2.223,2.223,0,0,1,0-3.125,2.322,2.322,0,0,1,3.174,0,2.222,2.222,0,0,1,0,3.125m-.524-2.649a1.484,1.484,0,0,0-2.125,0,1.58,1.58,0,0,0,0,2.174,1.484,1.484,0,0,0,2.125,0,1.58,1.58,0,0,0,0-2.174" transform="translate(-3761.263 -2081.85)" fill="#fff"/>
        <path id="Path_34580" data-name="Path 34580" d="M147.7,52.653a.239.239,0,0,0-.124-.271l-2.294-1.26a.225.225,0,0,0-.194-.006.231.231,0,0,0-.132.144l-.045.141-.916,2.444a.236.236,0,0,0,.11.273l2.418,1.361a.23.23,0,0,0,.206.011.226.226,0,0,0,.051-.028.249.249,0,0,0,.085-.127Zm-3.872,1.139.916-2.444-.285-.1a.239.239,0,0,0-.307.186l-.589,2.827a.234.234,0,0,0,.147.256l2.311.879-2-1.127a.412.412,0,0,1-.192-.482m-2.412.572A.29.29,0,0,0,141.5,54l-1.347-3a.3.3,0,0,0-.192-.155.306.306,0,0,0-.242.045l-.149.107L136.8,52.76a.294.294,0,0,0-.1.358l1.4,3.193h0a.292.292,0,0,0,.2.166.209.209,0,0,0,.073.008.272.272,0,0,0,.178-.062Zm-4.749-1.784,2.773-1.761-.22-.31a.29.29,0,0,0-.211-.127.285.285,0,0,0-.231.082l-2.734,2.39a.291.291,0,0,0-.045.369l1.652,2.632L136.5,53.208a.513.513,0,0,1,.169-.628m-.893-2.649.66-4.557a.44.44,0,0,0-.113-.327.415.415,0,0,0-.321-.124l-.257.014h-4.588a.412.412,0,0,0-.386.35l-.747,4.819v0a.418.418,0,0,0,.107.344.445.445,0,0,0,.082.065.411.411,0,0,0,.257.062L135.4,50.3a.414.414,0,0,0,.372-.369m-4.636-5.3h4.594l-.023-.53a.411.411,0,0,0-.49-.386l-5.022.772a.416.416,0,0,0-.333.4l-.025,4.349.626-3.994a.724.724,0,0,1,.674-.614m.916-9.687a.59.59,0,0,0-.459-.767l-.361-.059-6.381-1.443a.587.587,0,0,0-.645.366L121.651,39.5v0a.588.588,0,0,0,.042.513.722.722,0,0,0,.09.118.618.618,0,0,0,.338.164l6.95,1.164a.588.588,0,0,0,.634-.4Zm-.741-1.26.135-.744a.571.571,0,0,0-.121-.476.589.589,0,0,0-.44-.217l-7.224-.5a.59.59,0,0,0-.589.454l-1.4,6.04,2.122-5.358a1.027,1.027,0,0,1,1.127-.64Zm-7-6.773L125.7,15.975a.987.987,0,0,0-1.051-1.065l-.612.042-10.817.71a.985.985,0,0,0-.907.854l-1.578,11.473,0,0a.991.991,0,0,0,.273.82,1.05,1.05,0,0,0,.2.158.98.98,0,0,0,.617.132l11.614-1.3a.991.991,0,0,0,.874-.9M113.168,14.924l10.825-.71-.073-1.268a.986.986,0,0,0-1.192-.908L110.91,14.616a.988.988,0,0,0-.778.972l.132,10.321,1.316-9.492a1.729,1.729,0,0,1,1.587-1.494m1.6,33.045H109.7v8.686h5.065V55.578h-3.929V52.751h3.2V51.675h-3.2V49.045h3.929Zm-5.727-34.53L104.256,2.382a1.025,1.025,0,0,0-1.482-.459l-.541.338L93.124,8a1.024,1.024,0,0,0-.411,1.223l4.45,11.846v0a1.02,1.02,0,0,0,.651.617.913.913,0,0,0,.256.045,1.023,1.023,0,0,0,.628-.178l9.98-6.871a1.022,1.022,0,0,0,.361-1.246M92.718,7.351l9.114-5.741L101.145.485A1.022,1.022,0,0,0,99.614.24L90.5,8.174a1.022,1.022,0,0,0-.234,1.271L95.717,19.4,92,9.493a1.79,1.79,0,0,1,.722-2.142m-3.385,4.585a.984.984,0,0,0-.279-1.22L80.63,3.608a.983.983,0,0,0-1.466.3l-.3.538-5.809,9.326A.984.984,0,0,0,73.283,15l8.844,7.618,0,.006a.989.989,0,0,0,.837.214,1.053,1.053,0,0,0,.24-.082.981.981,0,0,0,.445-.443ZM72.412,13.421l5.811-9.337-1.1-.626a1,1,0,0,0-.823-.071.987.987,0,0,0-.586.581l-4.786,11.18a.988.988,0,0,0,.395,1.184l8.8,5.555L72.8,15.566a1.73,1.73,0,0,1-.392-2.145m-.91,5.727-5.549-3.506a.6.6,0,0,0-.49-.045.585.585,0,0,0-.349.344l-.132.341-2.666,5.975a.586.586,0,0,0,.234.7l5.837,3.774h0a.583.583,0,0,0,.51.062.6.6,0,0,0,.135-.068.583.583,0,0,0,.225-.3l2.506-6.586a.582.582,0,0,0-.262-.7M61.9,22.1l2.672-5.981-.7-.279a.6.6,0,0,0-.49.025.587.587,0,0,0-.3.389l-1.911,6.987a.587.587,0,0,0,.327.665l5.648,2.562-4.836-3.134A1.035,1.035,0,0,1,61.9,22.1m-1.325,2.982a.409.409,0,0,0-.183-.49L56.519,22.1a.425.425,0,0,0-.341-.034.4.4,0,0,0-.248.24l-.1.239-1.9,4.177a.408.408,0,0,0,.158.5L58.173,29.9l0,0a.4.4,0,0,0,.358.042.352.352,0,0,0,.093-.045.421.421,0,0,0,.163-.211ZM53.65,26.617l1.9-4.182-.493-.2a.409.409,0,0,0-.344.017.419.419,0,0,0-.211.271l-1.373,4.89a.41.41,0,0,0,.228.468L57.305,29.7l-3.376-2.221a.718.718,0,0,1-.279-.865m-1.325,2.832a.291.291,0,0,0,.045-.369l-2.057-2.99a.292.292,0,0,0-.442-.065l-.285.245,2.249,2.39a.518.518,0,0,1,.011.654l-1.773,2.28Zm-.659-.645-2.249-2.387-.116-.141a.289.289,0,0,0-.223-.1.3.3,0,0,0-.225.1L46.8,28.846a.294.294,0,0,0-.008.375l2.272,2.706a.319.319,0,0,0,.158.1.3.3,0,0,0,.307-.1l2.139-2.751a.293.293,0,0,0-.006-.372m-5.978,1.322a.234.234,0,0,0,.11-.276l-1-2.711a.231.231,0,0,0-.132-.144.234.234,0,0,0-.194.008l-.271.135,1.265,2.283a.41.41,0,0,1-.118.5l-1.812,1.412Zm-.381-.628-1.265-2.28-.065-.132a.221.221,0,0,0-.149-.124.238.238,0,0,0-.194.034l-2.083,1.584a.235.235,0,0,0-.082.287l1.223,2.528a.247.247,0,0,0,.1.113.442.442,0,0,0,.054.023.237.237,0,0,0,.2-.042l2.19-1.7a.231.231,0,0,0,.068-.287M44.84,47.969H41.416v8.686H43.36V53.07h.318l2.886,3.585H48.9l-3.069-3.83a2.243,2.243,0,0,0,1.7-2.238,2.565,2.565,0,0,0-2.692-2.618m-.231,1.787c.575,0,.989.3.989.831a.877.877,0,0,1-.989.832H43.36V49.756Zm-6.1,6.9h2.029l-3.717-8.686H35.063l-3.72,8.686h2.032l.769-1.835h3.6Zm-1.48-3.523H34.854l1.088-2.618Zm-4.966-2.19a2.959,2.959,0,0,0-3.058-2.974H26.061v8.686h1.945V53.9h1a2.949,2.949,0,0,0,3.058-2.959m-1.883,0a1.145,1.145,0,0,1-1.2,1.136h-.978V49.8h.978a1.139,1.139,0,0,1,1.2,1.139M24.9,52.312a4.49,4.49,0,1,0-4.49,4.49,4.5,4.5,0,0,0,4.49-4.49m-1.97,0a2.528,2.528,0,1,1-2.52-2.607,2.574,2.574,0,0,1,2.52,2.607M24.5,40.934l.3-.3a1.477,1.477,0,0,0-.555-.383,2.063,2.063,0,0,0-1.64.087,1.616,1.616,0,0,0-.637.609,1.684,1.684,0,0,0-.231.877,1.667,1.667,0,0,0,.231.874,1.628,1.628,0,0,0,.634.609,1.875,1.875,0,0,0,.91.22,2.151,2.151,0,0,0,.685-.11,1.774,1.774,0,0,0,.575-.313v-1.3h-.457v1.085a1.5,1.5,0,0,1-1.46.048,1.21,1.21,0,0,1-.471-.459,1.34,1.34,0,0,1,0-1.313,1.2,1.2,0,0,1,.471-.457,1.445,1.445,0,0,1,.685-.164,1.325,1.325,0,0,1,.964.386m-4.089,2.559H20.8V40.162h-.476v2.483l-2-2.483h-.389v3.331h.473V41.01Zm-4.112,0h.476V40.165H16.3Zm-.9,0-.789-1.119a1.072,1.072,0,0,0,.541-.395,1.115,1.115,0,0,0,.192-.657,1.047,1.047,0,0,0-.372-.851,1.545,1.545,0,0,0-1.017-.31h-1.3v3.331h.476V42.479h.823c.051,0,.121,0,.209-.008l.719,1.023Zm-1.46-1.418h-.809v-1.5h.809a1.089,1.089,0,0,1,.69.192.773.773,0,0,1,0,1.113,1.071,1.071,0,0,1-.69.195m-2.923,1.418h.476V40.165h-.476ZM9.763,42.174a1.166,1.166,0,0,0,0-1.7,1.553,1.553,0,0,0-1.02-.31h-1.3v3.331H7.92V42.484h.823a1.553,1.553,0,0,0,1.02-.31m-.1-.851a.677.677,0,0,1-.24.555,1.084,1.084,0,0,1-.69.192H7.92V40.576h.809a1.084,1.084,0,0,1,.69.192.681.681,0,0,1,.24.555m-5.014.011a.36.36,0,0,1-.113-.276.453.453,0,0,1,.2-.383,1.044,1.044,0,0,1,.606-.147,1.6,1.6,0,0,1,.465.07,1.729,1.729,0,0,1,.448.2l.158-.381a1.561,1.561,0,0,0-.49-.217,2.249,2.249,0,0,0-.581-.076,1.761,1.761,0,0,0-.71.127A.992.992,0,0,0,4.2,40.6a.858.858,0,0,0-.138.479.737.737,0,0,0,.163.507.972.972,0,0,0,.395.279,4.684,4.684,0,0,0,.606.18,4.681,4.681,0,0,1,.465.13.748.748,0,0,1,.276.163.369.369,0,0,1,.11.279.431.431,0,0,1-.2.372,1.115,1.115,0,0,1-.62.141,1.825,1.825,0,0,1-.612-.107,1.427,1.427,0,0,1-.488-.279l-.175.372a1.49,1.49,0,0,0,.55.3,2.322,2.322,0,0,0,.724.116,1.827,1.827,0,0,0,.713-.124.967.967,0,0,0,.434-.344.848.848,0,0,0,.144-.479.725.725,0,0,0-.166-.5,1.015,1.015,0,0,0-.392-.276,5.134,5.134,0,0,0-.6-.18,4.531,4.531,0,0,1-.459-.127.767.767,0,0,1-.285-.166M2.993,43.493h.5L1.978,40.162H1.508L0,43.493H.49l.366-.834h1.77ZM2.46,42.278H1.023l.719-1.632ZM0,52.312A4.513,4.513,0,0,0,4.724,56.8a4.8,4.8,0,0,0,3.56-1.285V51.393h-3.6v1.824h1.7V54.5a2.832,2.832,0,0,1-1.688.414A2.607,2.607,0,1,1,4.577,49.7a2.9,2.9,0,0,1,2.19.93L8.137,49.3a4.615,4.615,0,0,0-3.56-1.48A4.437,4.437,0,0,0,0,52.312m15.225-4.343H9.72v8.686h5.5v-1.86h-3.56V53.242h2.827v-1.86H11.665V49.829h3.56Zm33.657,4.343a4.493,4.493,0,0,0,4.49,4.49,4.435,4.435,0,0,0,2.68-.893l1.04.845,1.1-1.358-.967-.783a4.432,4.432,0,0,0,.637-2.3,4.49,4.49,0,0,0-8.979,0m1.959,0a2.527,2.527,0,1,1,5.05,0,2.666,2.666,0,0,1-.209,1.04l-1.319-1.065-1.1,1.347,1.234,1a2.358,2.358,0,0,1-1.125.279,2.574,2.574,0,0,1-2.531-2.6m10.411-4.343H59.3v5.248a3.574,3.574,0,1,0,7.147,0V47.969H64.5v5.273a1.627,1.627,0,1,1-3.252,0Zm12.327,0h-5.5v8.686h5.5v-1.86h-3.56V53.242h2.827v-1.86H70.019V49.829h3.56Zm5.262,4.343a4.49,4.49,0,1,0,4.49-4.49,4.453,4.453,0,0,0-4.49,4.49m1.15,0a3.346,3.346,0,1,1,3.34,3.413,3.33,3.33,0,0,1-3.34-3.413m14.345-4.343H89.271v8.686h5.065V55.578H90.407V52.751H93.6V51.675H90.407V49.045h3.929ZM96.28,54.55l-.9.685A3.331,3.331,0,0,0,98.408,56.8c1.629,0,2.779-.93,2.779-2.41a2.583,2.583,0,0,0-2.032-2.508l-1.04-.4c-.893-.333-1.308-.662-1.308-1.4s.707-1.2,1.564-1.2a2.17,2.17,0,0,1,1.725.857l.82-.733a3.122,3.122,0,0,0-2.52-1.186c-1.553,0-2.728.893-2.728,2.311,0,1.187.623,1.9,1.981,2.4l1.15.44c.809.307,1.248.772,1.248,1.468,0,.809-.71,1.3-1.615,1.3A2.451,2.451,0,0,1,96.28,54.55m12.063-6.581h-6.522v1.077h2.706v7.61h1.113v-7.61h2.7Z" transform="translate(0 0.001)" fill="#fff"/>
      </g>
    </g>
  </g>
</svg>
