<svg xmlns="http://www.w3.org/2000/svg" width="146.951" height="146.974" viewBox="0 0 146.951 146.974">
        <defs>
          <clipPath id="clip-path">
            <rect id="Rectangle_5727" data-name="Rectangle 5727" width="146.951" height="146.974" fill="none" />
          </clipPath>
        </defs>
        <g clipPath="url(#clip-path)">
          <path
            d="M125.3,125.6c-15.529,15.391-34.577,22.5-56.408,21.232A70.729,70.729,0,0,1,20.457,124.38C5.814,109.019-1.063,90.46.132,69.2A70.958,70.958,0,0,1,23.2,19.86C38.526,5.533,56.933-.912,77.907.1c35.811,1.736,69.239,31.957,69.043,73.5-.133,20.272-7.3,37.771-21.649,51.993"
            transform="translate(0 0)"
            fill="#f8f8fa"
          />
          <path
            d="M77.907.1C56.934-.912,38.527,5.533,23.2,19.86A70.959,70.959,0,0,0,.133,69.2c-1.2,21.258,5.682,39.816,20.325,55.177a70.728,70.728,0,0,0,48.436,22.452c21.831,1.264,40.878-5.841,56.408-21.232,14.349-14.222,21.516-31.721,21.649-51.993.2-41.545-33.233-71.766-69.043-73.5M114.995,58c0,.071,0,.141,0,.212q0,25.119,0,50.239c0,2.112-.215,2.318-2.351,2.318H33.186c-2.228,0-2.322-.092-2.322-2.3q0-27.519-.006-55.037a10.234,10.234,0,0,1,.05-1.049c0-.046.01-.092.016-.138a6.256,6.256,0,0,1,.208-1.036q.006-1.82.012-3.639,0-.306,0-.611,0-.988,0-1.977l.28-.265c.21-.009.421-.014.631-.017a24.052,24.052,0,0,0,4.413-.23c.013-1.457.057-2.914.025-4.37-.018-.8.3-1.069,1.079-1.055,4.923.09,9.817-.527,14.74-.632,4.723-.1,9.46-.162,14.178-.5,4.815-.349,9.641-.379,14.459-.592,7.347-.325,14.684-.794,22.043-.845,2.776-.019,2.654-.185,3.01,2.633q.044.352.076.7c.042.469.068.937.086,1.4.045,1.169.036,2.336.084,3.5,1.789,0,3.578,0,5.366-.01q.894-.006,1.788-.021c.968-.017,1.342.373,1.322,1.332q-.017.789-.023,1.578c-.015,1.578-.008,3.156-.015,4.734q.014,2.118.029,4.236a2.21,2.21,0,0,1,.278,1.215v0c0,.07,0,.141,0,.212"
            transform="translate(0 0)"
            fill="#ececec"
          />
          <path
            d="M193.122,183.785h0c-1.15.052-2.3-.006-3.455-.017l-.439,0a14.838,14.838,0,0,0-3.02.267c-.044.009-.089.017-.134.023s-.09.01-.136.012h0a.949.949,0,0,1-.526-.113.824.824,0,0,1-.226-.195q-22.99.01-45.979.035a1.645,1.645,0,0,1-1.832-1.34,23.006,23.006,0,0,0-1.087-2.725,2.073,2.073,0,0,0-2.182-1.35c-5.688.07-11.377,0-17.065.059-.972.009-1.562-.25-1.856-1.159a1.433,1.433,0,0,1-.9,1.068,1.689,1.689,0,0,1-.279.069,2.837,2.837,0,0,1-.66.019c-1.262-.093-2.536-.013-3.8-.007a6.226,6.226,0,0,0-.208,1.037c-.005.046-.011.091-.015.138a10.311,10.311,0,0,0-.05,1.048q.014,27.519.006,55.037c0,2.2.094,2.3,2.322,2.3h79.453c2.136,0,2.351-.206,2.351-2.318q0-25.12,0-50.239c0-.071,0-.141,0-.212s0-.141,0-.211V185a2.212,2.212,0,0,0-.278-1.215M156.061,225.55c-.725.01-1.451.012-2.177.011s-1.451,0-2.177,0c-1.4,0-2.809.014-4.213-.007-.517-.008-1.231.207-1.224-.7.007-.84.652-.955,1.276-.965,1.685-.028,3.37-.013,5.055-.012,1.17,0,2.343-.039,3.51.024.6.032,1.354.194,1.349.947-.005.9-.826.7-1.4.711m2.171-17.2c-1.066,1.694-2.158,3.373-3.239,5.058a.832.832,0,0,1,.16.188c.171.29-.105.474-.289.68a.485.485,0,0,0-.142.266,2.744,2.744,0,0,1,.019,2.55c-.3.516-3.216.97-3.874.715-2.074-.8-2.074-.8-2.075-3.257q-.036-.067-.07-.135a2.468,2.468,0,0,1-.117-.276,1.63,1.63,0,0,1-.092-.738,7.441,7.441,0,0,0-1.6-2.7c-.225-.268-.454-.53-.678-.794-3.336-3.926-3.086-8.672.951-11.873a6.78,6.78,0,0,1,6.059-1.329c2.808.69,4.818,2.1,5.843,4.839a7.344,7.344,0,0,1-.852,6.8"
            transform="translate(-78.406 -127.214)"
            fill="#d2d8dc"
          />
          <path
            d="M129.137,137.138l.041,1.349q.009.284.018.568a3.227,3.227,0,0,0,1.428.535,6.571,6.571,0,0,0,.942.054c6.443-.03,12.886.008,19.329-.037a2.253,2.253,0,0,1,2.42,1.636c1.526,3.769,1.571,3.751,5.663,3.751l40.211,0,.08.029-.352-7.634c-.048-1.169-.04-2.335-.084-3.5-.018-.467-.044-.936-.086-1.4q-.032-.352-.076-.7c-.356-2.818-.234-2.652-3.01-2.633-7.36.051-14.7.52-22.043.845-4.818.213-9.643.243-14.459.592-4.718.342-9.455.4-14.178.5-4.923.105-9.816.722-14.74.632-.781-.014-1.1.252-1.079,1.055.032,1.456-.013,2.913-.025,4.37h0"
            transform="translate(-92.667 -92.663)"
            fill="#fefefe"
          />
          <path
            d="M376.575,165.91l8.086-.021c.007-1.578,0-3.157.015-4.734q.008-.789.023-1.578c.02-.959-.353-1.349-1.322-1.332q-.894.016-1.789.021c-1.789.013-3.577,0-5.366.01q.176,3.817.352,7.634"
            transform="translate(-269.973 -113.554)"
            fill="#bdc5ca"
          />
          <path
            d="M377.264,185.315l-.08-.029c.006.352.007.705.011,1.058s.008.705.021,1.058a12.964,12.964,0,0,0,.226,2.1.831.831,0,0,0,.226.195.948.948,0,0,0,.526.114h0c.045,0,.091-.007.136-.013s.09-.014.134-.023a14.842,14.842,0,0,1,3.02-.267l.439,0c1.152.011,2.305.069,3.455.017q-.014-2.118-.029-4.236l-8.086.021"
            transform="translate(-270.663 -132.959)"
            fill="#b1babf"
          />
          <path
            d="M114.037,170.554a2.838,2.838,0,0,0,.66-.019,1.676,1.676,0,0,0,.279-.069,1.432,1.432,0,0,0,.9-1.068c-.062-.644.069-1.308.029-1.954a2.383,2.383,0,0,0-.339-1.137l-5.324-.01q0,.305,0,.611l-.012,3.639c1.269-.006,2.543-.086,3.8.007"
            transform="translate(-79.101 -119.333)"
            fill="#b1babf"
          />
          <path
            d="M115.6,159.982q.03-.291.06-.583-.008-.284-.017-.568-.02-.674-.041-1.349h0a24.076,24.076,0,0,1-4.413.23c-.21,0-.421.008-.631.017l-.279.265h0l0,1.977,5.324.01"
            transform="translate(-79.136 -113.008)"
            fill="#bdc5ca"
          />
          <path
            d="M110.287,158.623l.279-.265"
            transform="translate(-79.141 -113.636)"
            fill="none"
            stroke="#cacdd1"
            strokeLinecap="round"
            strokeLinejoin="round"
          />
          <line transform="translate(31.146 44.988)" fill="none" stroke="#cacdd1" strokeLinecap="round" strokeLinejoin="round" />
          <path
            d="M199.217,172.32c-.013-.352-.018-.7-.021-1.058s0-.705-.011-1.058l-40.211,0c-4.093,0-4.137.018-5.663-3.751a2.253,2.253,0,0,0-2.42-1.636c-6.443.045-12.886.007-19.329.037a6.562,6.562,0,0,1-.942-.054,3.23,3.23,0,0,1-1.428-.535q-.03.291-.06.583a2.378,2.378,0,0,1,.339,1.137c.041.646-.09,1.31-.029,1.954.294.909.884,1.168,1.856,1.159,5.688-.055,11.378.011,17.065-.059a2.073,2.073,0,0,1,2.182,1.351,22.959,22.959,0,0,1,1.087,2.725,1.645,1.645,0,0,0,1.832,1.34q22.99-.042,45.979-.035h0a12.958,12.958,0,0,1-.227-2.1"
            transform="translate(-92.664 -117.878)"
            fill="#ecedee"
          />
          <path
            d="M241.313,245.5a6.779,6.779,0,0,0-6.058,1.329c-4.037,3.2-4.287,7.947-.951,11.873.224.263.453.526.677.794a7.443,7.443,0,0,1,1.6,2.7l6.48.007h0c1.08-1.685,2.172-3.364,3.238-5.058a7.343,7.343,0,0,0,.852-6.8c-1.024-2.743-3.035-4.149-5.843-4.839"
            transform="translate(-166.477 -176.008)"
            fill="#e8ebed"
          />
          <path
            d="M251.306,312.484c.659.254,3.572-.2,3.874-.715a2.744,2.744,0,0,0-.019-2.55l-5.93.009c0,2.455,0,2.455,2.075,3.257"
            transform="translate(-178.845 -221.891)"
            fill="#e8ebed"
          />
          <path
            d="M250.147,342.241c-1.167-.063-2.34-.024-3.51-.024-1.685,0-3.371-.015-5.055.013-.624.01-1.27.125-1.276.965-.007.91.707.7,1.224.7,1.4.021,2.809.007,4.212.007.726,0,1.451,0,2.177,0s1.451,0,2.177-.011c.573-.008,1.394.189,1.4-.711,0-.753-.752-.915-1.349-.947"
            transform="translate(-172.441 -245.562)"
            fill="#e6e9eb"
          />
          <path
            d="M248.217,305.181a1.63,1.63,0,0,0,.092.738,2.484,2.484,0,0,0,.117.276c.022.045.046.09.07.135l5.93-.009a.484.484,0,0,1,.142-.266c.184-.206.46-.389.289-.68a.835.835,0,0,0-.16-.188l-6.48-.006"
            transform="translate(-178.11 -218.994)"
            fill="#cacdd1"
          />
        </g>
      </svg>